<?xml version="1.0" encoding="UTF-8" standalone="no"?>
<svg
   xmlns:dc="http://purl.org/dc/elements/1.1/"
   xmlns:cc="http://creativecommons.org/ns#"
   xmlns:rdf="http://www.w3.org/1999/02/22-rdf-syntax-ns#"
   xmlns:svg="http://www.w3.org/2000/svg"
   xmlns="http://www.w3.org/2000/svg"
   xmlns:sodipodi="http://sodipodi.sourceforge.net/DTD/sodipodi-0.dtd"
   xmlns:inkscape="http://www.inkscape.org/namespaces/inkscape"
   viewBox="0 0 448 512"
   version="1.1"
   id="svg4"
   sodipodi:docname="angle-double-right.svg"
   inkscape:version="1.0 (4035a4fb49, 2020-05-01)">
  <metadata
     id="metadata10">
    <rdf:RDF>
      <cc:Work
         rdf:about="">
        <dc:format>image/svg+xml</dc:format>
        <dc:type
           rdf:resource="http://purl.org/dc/dcmitype/StillImage" />
      </cc:Work>
    </rdf:RDF>
  </metadata>
  <defs
     id="defs8" />
  <sodipodi:namedview
     inkscape:document-rotation="0"
     pagecolor="#ffffff"
     bordercolor="#666666"
     borderopacity="1"
     objecttolerance="10"
     gridtolerance="10"
     guidetolerance="10"
     inkscape:pageopacity="0"
     inkscape:pageshadow="2"
     inkscape:window-width="1366"
     inkscape:window-height="745"
     id="namedview6"
     showgrid="false"
     inkscape:zoom="1.0422927"
     inkscape:cx="-42.096605"
     inkscape:cy="219.0991"
     inkscape:window-x="-8"
     inkscape:window-y="-8"
     inkscape:window-maximized="1"
     inkscape:current-layer="svg4" />
  <!-- Font Awesome Free 5.15.3 by @fontawesome - https://fontawesome.com License - https://fontawesome.com/license/free (Icons: CC BY 4.0, Fonts: SIL OFL 1.1, Code: MIT License) -->
  <g
     id="g855"
     style="fill:#000000;fill-opacity:1;stroke-width:0;stroke-miterlimit:4;stroke-dasharray:none"
     transform="matrix(1.8305636,0,0,1.8305636,-214.85532,-185.34981)">
    <path
       sodipodi:nodetypes="cccccccccccc"
       id="path849"
       d="m 145.96042,134.3872 100.41578,99.49453 c 4.43248,4.7416 4.99851,10.55448 0.46062,14.27931 l -100.8764,99.03391 c -3.95856,4.12416 -10.6027,4.33329 -15.20056,0 l -5.98809,-5.9881 c -3.4493,-3.6476 -3.54682,-10.44995 0,-14.73993 l 87.51834,-85.67585 -87.05772,-85.67585 c -3.67391,-3.48626 -4.55413,-10.39512 -0.46062,-15.20055 l 6.44872,-5.52747 c 4.23235,-3.81295 10.82069,-3.88874 14.73993,0 z"
       style="fill:#000000;fill-opacity:1;stroke:#000000;stroke-width:0;stroke-linecap:butt;stroke-linejoin:miter;stroke-miterlimit:4;stroke-dasharray:none;stroke-opacity:1" />
    <path
       style="fill:#000000;fill-opacity:1;stroke:#000000;stroke-width:0;stroke-linecap:butt;stroke-linejoin:miter;stroke-miterlimit:4;stroke-dasharray:none;stroke-opacity:1"
       d="m 255.7406,134.3872 100.41578,99.49453 c 4.43248,4.7416 4.99851,10.55448 0.46062,14.27931 l -100.8764,99.03391 c -3.95856,4.12416 -10.6027,4.33329 -15.20056,0 l -5.98809,-5.9881 c -3.4493,-3.6476 -3.54682,-10.44995 0,-14.73993 l 87.51834,-85.67585 -87.05772,-85.67585 c -3.67391,-3.48626 -4.43882,-10.9717 -0.46062,-15.20055 l 6.44872,-5.52747 c 4.23235,-3.81295 10.82069,-3.88874 14.73993,0 z"
       id="path851"
       sodipodi:nodetypes="cccccccccccc" />
  </g>
</svg>
